<svg xmlns="http://www.w3.org/2000/svg" style="display: none;"><symbol id="phone" viewBox="0 0 473.806 473.806"><title>phone</title><path d="M374.456,293.506c-9.7-10.1-21.4-15.5-33.8-15.5c-12.3,0-24.1,5.3-34.2,15.4l-31.6,31.5c-2.6-1.4-5.2-2.7-7.7-4 c-3.6-1.8-7-3.5-9.9-5.3c-29.6-18.8-56.5-43.3-82.3-75c-12.5-15.8-20.9-29.1-27-42.6c8.2-7.5,15.8-15.3,23.2-22.8 c2.8-2.8,5.6-5.7,8.4-8.5c21-21,21-48.2,0-69.2l-27.3-27.3c-3.1-3.1-6.3-6.3-9.3-9.5c-6-6.2-12.3-12.6-18.8-18.6 c-9.7-9.6-21.3-14.7-33.5-14.7s-24,5.1-34,14.7c-0.1,0.1-0.1,0.1-0.2,0.2l-34,34.3c-12.8,12.8-20.1,28.4-21.7,46.5 c-2.4,29.2,6.2,56.4,12.8,74.2c16.2,43.7,40.4,84.2,76.5,127.6c43.8,52.3,96.5,93.6,156.7,122.7c23,10.9,53.7,23.8,88,26 c2.1,0.1,4.3,0.2,6.3,0.2c23.1,0,42.5-8.3,57.7-24.8c0.1-0.2,0.3-0.3,0.4-0.5c5.2-6.3,11.2-12,17.5-18.1c4.3-4.1,8.7-8.4,13-12.9 c9.9-10.3,15.1-22.3,15.1-34.6c0-12.4-5.3-24.3-15.4-34.3L374.456,293.506z M410.256,398.806 C410.156,398.806,410.156,398.906,410.256,398.806c-3.9,4.2-7.9,8-12.2,12.2c-6.5,6.2-13.1,12.7-19.3,20 c-10.1,10.8-22,15.9-37.6,15.9c-1.5,0-3.1,0-4.6-0.1c-29.7-1.9-57.3-13.5-78-23.4c-56.6-27.4-106.3-66.3-147.6-115.6 c-34.1-41.1-56.9-79.1-72-119.9c-9.3-24.9-12.7-44.3-11.2-62.6c1-11.7,5.5-21.4,13.8-29.7l34.1-34.1c4.9-4.6,10.1-7.1,15.2-7.1 c6.3,0,11.4,3.8,14.6,7c0.1,0.1,0.2,0.2,0.3,0.3c6.1,5.7,11.9,11.6,18,17.9c3.1,3.2,6.3,6.4,9.5,9.7l27.3,27.3 c10.6,10.6,10.6,20.4,0,31c-2.9,2.9-5.7,5.8-8.6,8.6c-8.4,8.6-16.4,16.6-25.1,24.4c-0.2,0.2-0.4,0.3-0.5,0.5 c-8.6,8.6-7,17-5.2,22.7c0.1,0.3,0.2,0.6,0.3,0.9c7.1,17.2,17.1,33.4,32.3,52.7l0.1,0.1c27.6,34,56.7,60.5,88.8,80.8 c4.1,2.6,8.3,4.7,12.3,6.7c3.6,1.8,7,3.5,9.9,5.3c0.4,0.2,0.8,0.5,1.2,0.7c3.4,1.7,6.6,2.5,9.9,2.5c8.3,0,13.5-5.2,15.2-6.9 l34.2-34.2c3.4-3.4,8.8-7.5,15.1-7.5c6.2,0,11.3,3.9,14.4,7.3c0.1,0.1,0.1,0.1,0.2,0.2l55.1,55.1 C420.456,377.706,420.456,388.206,410.256,398.806z"/><path d="M256.056,112.706c26.2,4.4,50,16.8,69,35.8s31.3,42.8,35.8,69c1.1,6.6,6.8,11.2,13.3,11.2c0.8,0,1.5-0.1,2.3-0.2 c7.4-1.2,12.3-8.2,11.1-15.6c-5.4-31.7-20.4-60.6-43.3-83.5s-51.8-37.9-83.5-43.3c-7.4-1.2-14.3,3.7-15.6,11 S248.656,111.506,256.056,112.706z"/><path d="M473.256,209.006c-8.9-52.2-33.5-99.7-71.3-137.5s-85.3-62.4-137.5-71.3c-7.3-1.3-14.2,3.7-15.5,11 c-1.2,7.4,3.7,14.3,11.1,15.6c46.6,7.9,89.1,30,122.9,63.7c33.8,33.8,55.8,76.3,63.7,122.9c1.1,6.6,6.8,11.2,13.3,11.2 c0.8,0,1.5-0.1,2.3-0.2C469.556,223.306,474.556,216.306,473.256,209.006z"/></symbol><symbol id="carpet" viewBox="0 -8 480.00006 480"><title>carpet</title><path d="m408 0c-36.644531.0546875-67.417969 27.589844-71.527344 64h-336.472656v16h32v16h-32v16h32v16h-32v16h32v16h-32v16h32v16h-32v16h32v16h-32v16h32v16h-32v16h32v16h-32v16h32v16h-32v16h32v16h-32v16h32v16h-32v16h32v16h-32v16h32v16h-32v16h408c39.746094-.046875 71.953125-32.253906 72-72v-320c.027344-19.101562-7.550781-37.429688-21.058594-50.941406-13.507812-13.507813-31.839844-21.0859378-50.941406-21.058594zm-70.144531 408h-209.855469v-32c0-4.417969-3.582031-8-8-8h-32v-208h32c4.417969 0 8-3.582031 8-8v-32h208v24h-176c-4.417969 0-8 3.582031-8 8v32h-32c-4.417969 0-8 3.582031-8 8v144c0 4.417969 3.582031 8 8 8h32v32c0 4.417969 3.582031 8 8 8h176v8c.015625 5.386719.640625 10.753906 1.855469 16zm-1.855469-80h-128v-32c0-4.417969-3.582031-8-8-8h-32v-48h32c4.417969 0 8-3.582031 8-8v-32h128zm0-144h-136c-4.417969 0-8 3.582031-8 8v32h-32c-4.417969 0-8 3.582031-8 8v64c0 4.417969 3.582031 8 8 8h32v32c0 4.417969 3.582031 8 8 8h136v24h-168v-32c0-4.417969-3.582031-8-8-8h-32v-128h32c4.417969 0 8-3.582031 8-8v-32h168zm-288 264v-368h288v24h-216c-4.417969 0-8 3.582031-8 8v32h-32c-4.417969 0-8 3.582031-8 8v224c0 4.417969 3.582031 8 8 8h32v32c0 4.417969 3.582031 8 8 8h223.601562c4.621094 9.289062 11.183594 17.472656 19.246094 24zm360 0c-30.929688 0-56-25.070312-56-56s25.070312-56 56-56 56 25.070312 56 56c-.035156 30.914062-25.085938 55.964844-56 56zm56-101.152344c-13.632812-16.972656-34.230469-26.847656-56-26.847656s-42.367188 9.875-56 26.847656v-274.847656c0-30.929688 25.070312-56 56-56s56 25.070312 56 56zm0 0"/><path d="m72 104h16v16h-16zm0 0"/><path d="m72 408h16v16h-16zm0 0"/><path d="m408 352c-22.089844 0-40 17.910156-40 40s17.910156 40 40 40 40-17.910156 40-40c-.027344-22.082031-17.917969-39.972656-40-40zm0 64c-13.253906 0-24-10.746094-24-24s10.746094-24 24-24 24 10.746094 24 24-10.746094 24-24 24zm0 0"/></symbol><symbol id="floor" viewBox="0 0 512 512"><title>floor</title><path d="m504.5 124.25c4.140625 0 7.5-3.355469 7.5-7.5v-109.25c0-4.144531-3.359375-7.5-7.5-7.5h-357.75c-4.140625 0-7.5 3.355469-7.5 7.5s3.359375 7.5 7.5 7.5h101.75v233.5h-233.5v-101.75c0-4.140625-3.359375-7.5-7.5-7.5s-7.5 3.359375-7.5 7.5v357.75c0 4.144531 3.359375 7.5 7.5 7.5h357.75c4.140625 0 7.5-3.355469 7.5-7.5s-3.359375-7.5-7.5-7.5h-101.75v-233.5h233.5v233.5h-101.75c-4.140625 0-7.5 3.355469-7.5 7.5s3.359375 7.5 7.5 7.5h109.25c4.140625 0 7.5-3.355469 7.5-7.5v-357.75c0-4.140625-3.359375-7.5-7.5-7.5s-7.5 3.359375-7.5 7.5v101.75h-233.5v-233.5h233.5v101.75c0 4.144531 3.359375 7.5 7.5 7.5zm-489.5 139.25h233.5v233.5h-233.5zm0 0"/><path d="m432.578125 244.808594c4.140625 0 7.5-3.359375 7.5-7.5v-18.941406l26.789063-26.789063h18.941406c4.140625 0 7.5-3.355469 7.5-7.5 0-4.140625-3.359375-7.5-7.5-7.5h-22.046875c-1.988281 0-3.898438.789063-5.300781 2.195313l-31.183594 31.1875c-1.410156 1.40625-2.199219 3.3125-2.199219 5.300781v22.046875c0 4.140625 3.359375 7.5 7.5 7.5zm0 0"/><path d="m327.921875 244.808594c4.140625 0 7.5-3.359375 7.5-7.5v-22.046875c0-1.988281-.789063-3.894531-2.195313-5.304688l-31.183593-31.183593c-1.40625-1.40625-3.316407-2.195313-5.304688-2.195313h-22.046875c-4.140625 0-7.5 3.355469-7.5 7.5s3.359375 7.5 7.5 7.5h18.941406l26.789063 26.789063v18.941406c0 4.140625 3.359375 7.5 7.5 7.5zm0 0"/><path d="m274.691406 86.921875h22.046875c1.988281 0 3.898438-.789063 5.300781-2.195313l31.183594-31.183593c1.410156-1.40625 2.199219-3.316407 2.199219-5.304688v-22.046875c0-4.140625-3.359375-7.5-7.5-7.5-4.144531 0-7.5 3.359375-7.5 7.5v18.941406l-26.789063 26.789063h-18.941406c-4.140625 0-7.5 3.355469-7.5 7.5 0 4.140625 3.359375 7.5 7.5 7.5zm0 0"/><path d="m485.808594 71.921875h-18.941406l-26.789063-26.789063v-18.941406c0-4.140625-3.359375-7.5-7.5-7.5s-7.5 3.359375-7.5 7.5v22.046875c0 1.988281.789063 3.894531 2.195313 5.304688l31.183593 31.183593c1.40625 1.40625 3.316407 2.195313 5.304688 2.195313h22.046875c4.140625 0 7.5-3.355469 7.5-7.5s-3.359375-7.5-7.5-7.5zm0 0"/><path d="m358.628906 186.355469 4.355469-4.359375c9.519531-9.515625 25.007813-9.515625 34.527344 0l4.355469 4.359375c1.464843 1.464843 3.386718 2.195312 5.304687 2.195312s3.839844-.730469 5.304687-2.195312l22.375-22.378907c1.410157-1.40625 2.199219-3.3125 2.199219-5.304687 0-1.988281-.792969-3.894531-2.199219-5.304687l-4.355468-4.355469c-9.519532-9.519531-9.519532-25.007813 0-34.523438l4.355468-4.359375c1.40625-1.40625 2.199219-3.3125 2.199219-5.304687 0-1.988281-.789062-3.894531-2.199219-5.300781l-22.375-22.378907c-2.929687-2.929687-7.679687-2.929687-10.609374 0l-4.355469 4.355469c-9.519531 9.519531-25.007813 9.519531-34.527344 0l-4.355469-4.355469c-2.929687-2.929687-7.675781-2.929687-10.605468 0l-22.378907 22.378907c-1.40625 1.40625-2.195312 3.3125-2.195312 5.300781 0 1.992187.789062 3.898437 2.195312 5.304687l4.359375 4.359375c9.519532 9.519531 9.519532 25.003907 0 34.523438l-4.359375 4.355469c-1.40625 1.40625-2.195312 3.316406-2.195312 5.304687 0 1.992187.789062 3.898437 2.195312 5.304687l22.378907 22.378907c2.929687 2.925781 7.675781 2.925781 10.605468 0zm-17.089844-81.511719 11.804688-11.804688c15.105469 14.128907 38.707031 14.128907 53.8125 0l11.804688 11.804688c-14.128907 15.105469-14.125 38.707031 0 53.8125l-11.804688 11.804688c-7.550781-7.0625-17.226562-10.59375-26.90625-10.59375s-19.355469 3.527343-26.90625 10.59375l-11.804688-11.804688c14.128907-15.105469 14.125-38.707031 0-53.8125zm0 0"/><path d="m7.5 124.25c4.140625 0 7.5-3.355469 7.5-7.5v-101.75h101.75c4.140625 0 7.5-3.355469 7.5-7.5s-3.359375-7.5-7.5-7.5h-109.25c-4.140625 0-7.5 3.355469-7.5 7.5v109.25c0 4.144531 3.359375 7.5 7.5 7.5zm0 0"/><path d="m237.308594 176.578125h-22.046875c-1.988281 0-3.898438.789063-5.300781 2.195313l-31.183594 31.183593c-1.410156 1.40625-2.199219 3.316407-2.199219 5.304688v22.046875c0 4.140625 3.359375 7.5 7.5 7.5 4.144531 0 7.5-3.359375 7.5-7.5v-18.941406l26.789063-26.789063h18.941406c4.140625 0 7.5-3.355469 7.5-7.5 0-4.140625-3.359375-7.5-7.5-7.5zm0 0"/><path d="m79.421875 244.808594c4.140625 0 7.5-3.359375 7.5-7.5v-22.046875c0-1.988281-.789063-3.894531-2.195313-5.304688l-31.183593-31.183593c-1.40625-1.40625-3.316407-2.195313-5.304688-2.195313h-22.046875c-4.140625 0-7.5 3.355469-7.5 7.5s3.359375 7.5 7.5 7.5h18.941406l26.789063 26.789063v18.941406c0 4.140625 3.359375 7.5 7.5 7.5zm0 0"/><path d="m26.191406 86.921875h22.046875c1.988281 0 3.898438-.789063 5.300781-2.195313l31.183594-31.183593c1.410156-1.40625 2.199219-3.316407 2.199219-5.304688v-22.046875c0-4.140625-3.359375-7.5-7.5-7.5-4.144531 0-7.5 3.359375-7.5 7.5v18.941406l-26.789063 26.789063h-18.941406c-4.140625 0-7.5 3.355469-7.5 7.5 0 4.140625 3.359375 7.5 7.5 7.5zm0 0"/><path d="m184.078125 18.691406c-4.140625 0-7.5 3.359375-7.5 7.5v22.046875c0 1.988281.789063 3.894531 2.195313 5.304688l31.183593 31.183593c1.40625 1.40625 3.316407 2.195313 5.304688 2.195313h22.046875c4.140625 0 7.5-3.355469 7.5-7.5s-3.359375-7.5-7.5-7.5h-18.941406l-26.789063-26.789063v-18.941406c0-4.140625-3.359375-7.5-7.5-7.5zm0 0"/><path d="m153.371094 77.144531-4.355469 4.359375c-9.523437 9.515625-25.007813 9.515625-34.527344 0l-4.355469-4.359375c-2.929687-2.925781-7.679687-2.925781-10.609374 0l-22.378907 22.378907c-1.40625 1.40625-2.195312 3.3125-2.195312 5.300781 0 1.992187.789062 3.898437 2.195312 5.304687l4.359375 4.359375c9.519532 9.519531 9.519532 25.003907 0 34.523438l-4.359375 4.355469c-1.40625 1.40625-2.195312 3.316406-2.195312 5.304687 0 1.992187.789062 3.898437 2.195312 5.304687l22.378907 22.378907c2.929687 2.925781 7.675781 2.925781 10.605468 0l4.355469-4.359375c9.523437-9.515625 25.007813-9.515625 34.527344 0l4.355469 4.359375c1.464843 1.464843 3.386718 2.195312 5.304687 2.195312s3.839844-.730469 5.304687-2.195312l22.375-22.378907c1.410157-1.40625 2.199219-3.3125 2.199219-5.304687 0-1.988281-.792969-3.894531-2.199219-5.304687l-4.355468-4.355469c-9.519532-9.519531-9.519532-25.007813 0-34.523438l4.355468-4.359375c1.40625-1.40625 2.199219-3.3125 2.199219-5.304687 0-1.988281-.789062-3.894531-2.199219-5.300781l-22.375-22.378907c-2.929687-2.925781-7.675781-2.925781-10.605468 0zm17.089844 81.511719-11.804688 11.804688c-7.550781-7.0625-17.226562-10.59375-26.90625-10.59375s-19.355469 3.527343-26.90625 10.59375l-11.804688-11.804688c14.128907-15.105469 14.125-38.707031 0-53.8125l11.804688-11.804688c15.105469 14.128907 38.707031 14.128907 53.8125 0l11.804688 11.804688c-14.128907 15.105469-14.125 38.707031 0 53.8125zm0 0"/><path d="m485.808594 425.078125h-22.046875c-1.988281 0-3.898438.789063-5.300781 2.195313l-31.183594 31.183593c-1.410156 1.40625-2.199219 3.316407-2.199219 5.304688v22.046875c0 4.140625 3.359375 7.5 7.5 7.5 4.144531 0 7.5-3.359375 7.5-7.5v-18.941406l26.789063-26.789063h18.941406c4.140625 0 7.5-3.355469 7.5-7.5 0-4.140625-3.359375-7.5-7.5-7.5zm0 0"/><path d="m327.921875 493.308594c4.140625 0 7.5-3.359375 7.5-7.5v-22.046875c0-1.988281-.789063-3.894531-2.195313-5.304688l-31.183593-31.183593c-1.40625-1.40625-3.316407-2.195313-5.304688-2.195313h-22.046875c-4.140625 0-7.5 3.355469-7.5 7.5s3.359375 7.5 7.5 7.5h18.941406l26.789063 26.789063v18.941406c0 4.140625 3.359375 7.5 7.5 7.5zm0 0"/><path d="m274.691406 335.421875h22.046875c1.988281 0 3.898438-.789063 5.300781-2.195313l31.183594-31.183593c1.410156-1.40625 2.199219-3.316407 2.199219-5.304688v-22.046875c0-4.140625-3.359375-7.5-7.5-7.5-4.144531 0-7.5 3.359375-7.5 7.5v18.941406l-26.789063 26.789063h-18.941406c-4.140625 0-7.5 3.355469-7.5 7.5 0 4.140625 3.359375 7.5 7.5 7.5zm0 0"/><path d="m432.578125 267.191406c-4.140625 0-7.5 3.359375-7.5 7.5v22.046875c0 1.988281.789063 3.894531 2.195313 5.304688l31.183593 31.183593c1.40625 1.40625 3.316407 2.195313 5.304688 2.195313h22.046875c4.140625 0 7.5-3.355469 7.5-7.5s-3.359375-7.5-7.5-7.5h-18.941406l-26.789063-26.789063v-18.941406c0-4.140625-3.359375-7.5-7.5-7.5zm0 0"/><path d="m358.628906 434.855469 4.355469-4.359375c9.519531-9.515625 25.007813-9.515625 34.527344 0l4.355469 4.359375c1.464843 1.464843 3.386718 2.195312 5.304687 2.195312s3.839844-.730469 5.304687-2.195312l22.375-22.378907c1.410157-1.40625 2.199219-3.3125 2.199219-5.304687 0-1.988281-.792969-3.894531-2.199219-5.304687l-4.355468-4.355469c-9.519532-9.519531-9.519532-25.007813 0-34.523438l4.355468-4.359375c1.40625-1.40625 2.199219-3.3125 2.199219-5.304687 0-1.988281-.789062-3.894531-2.199219-5.300781l-22.375-22.378907c-2.929687-2.929687-7.679687-2.929687-10.609374 0l-4.355469 4.355469c-9.519531 9.519531-25.007813 9.519531-34.527344 0l-4.355469-4.355469c-2.929687-2.929687-7.675781-2.929687-10.605468 0l-22.378907 22.378907c-1.40625 1.40625-2.195312 3.3125-2.195312 5.300781 0 1.992187.789062 3.898437 2.195312 5.304687l4.359375 4.359375c9.519532 9.519531 9.519532 25.003907 0 34.523438l-4.359375 4.355469c-1.40625 1.40625-2.195312 3.316406-2.195312 5.304687 0 1.992187.789062 3.898437 2.195312 5.304687l22.378907 22.378907c2.929687 2.925781 7.675781 2.925781 10.605468 0zm-17.089844-81.511719 11.804688-11.804688c15.105469 14.128907 38.707031 14.128907 53.8125 0l11.804688 11.804688c-14.128907 15.105469-14.125 38.707031 0 53.8125l-11.804688 11.804688c-7.550781-7.0625-17.226562-10.59375-26.90625-10.59375s-19.355469 3.527343-26.90625 10.59375l-11.804688-11.804688c14.128907-15.105469 14.125-38.707031 0-53.8125zm0 0"/><path d="m237.308594 425.078125h-22.046875c-1.988281 0-3.898438.789063-5.300781 2.195313l-31.183594 31.183593c-1.410156 1.40625-2.199219 3.316407-2.199219 5.304688v22.046875c0 4.140625 3.359375 7.5 7.5 7.5 4.144531 0 7.5-3.359375 7.5-7.5v-18.941406l26.789063-26.789063h18.941406c4.140625 0 7.5-3.355469 7.5-7.5 0-4.140625-3.359375-7.5-7.5-7.5zm0 0"/><path d="m53.542969 427.273438c-1.40625-1.40625-3.316407-2.195313-5.304688-2.195313h-22.046875c-4.140625 0-7.5 3.355469-7.5 7.5s3.359375 7.5 7.5 7.5h18.941406l26.789063 26.789063v18.941406c0 4.140625 3.359375 7.5 7.5 7.5s7.5-3.359375 7.5-7.5v-22.046875c0-1.988281-.789063-3.898438-2.195313-5.304688zm0 0"/><path d="m26.191406 335.421875h22.046875c1.988281 0 3.898438-.789063 5.300781-2.195313l31.183594-31.183593c1.410156-1.40625 2.199219-3.316407 2.199219-5.304688v-22.046875c0-4.140625-3.359375-7.5-7.5-7.5-4.144531 0-7.5 3.359375-7.5 7.5v18.941406l-26.789063 26.789063h-18.941406c-4.140625 0-7.5 3.355469-7.5 7.5 0 4.140625 3.359375 7.5 7.5 7.5zm0 0"/><path d="m237.308594 320.421875h-18.941406l-26.789063-26.789063v-18.941406c0-4.140625-3.359375-7.5-7.5-7.5s-7.5 3.359375-7.5 7.5v22.046875c0 1.988281.789063 3.898438 2.195313 5.304688l31.183593 31.183593c1.40625 1.40625 3.316407 2.195313 5.304688 2.195313h22.046875c4.140625 0 7.5-3.355469 7.5-7.5 0-4.140625-3.359375-7.5-7.5-7.5zm0 0"/><path d="m188.550781 407.175781c0-1.992187-.789062-3.898437-2.195312-5.304687l-4.359375-4.359375c-9.519532-9.519531-9.519532-25.003907 0-34.523438l4.359375-4.355469c1.40625-1.40625 2.195312-3.316406 2.195312-5.304687 0-1.992187-.789062-3.898437-2.195312-5.304687l-22.378907-22.378907c-2.929687-2.925781-7.675781-2.925781-10.605468 0l-4.355469 4.359375c-9.523437 9.515625-25.007813 9.515625-34.527344 0l-4.355469-4.359375c-2.929687-2.925781-7.679687-2.925781-10.609374 0l-22.375 22.378907c-1.410157 1.40625-2.199219 3.3125-2.199219 5.304687 0 1.988281.792969 3.894531 2.199219 5.304687l4.355468 4.355469c9.519532 9.519531 9.519532 25.007813 0 34.523438l-4.355468 4.359375c-1.40625 1.40625-2.199219 3.3125-2.199219 5.304687 0 1.988281.789062 3.894531 2.199219 5.300781l22.375 22.378907c2.929687 2.929687 7.679687 2.929687 10.609374 0l4.355469-4.355469c9.519531-9.519531 25.007813-9.519531 34.527344 0l4.355469 4.355469c1.464844 1.464843 3.382812 2.195312 5.304687 2.195312 1.917969 0 3.835938-.730469 5.300781-2.195312l22.378907-22.378907c1.40625-1.40625 2.195312-3.3125 2.195312-5.300781zm-29.894531 11.785157c-7.550781-7.0625-17.226562-10.59375-26.90625-10.59375s-19.355469 3.527343-26.90625 10.59375l-11.804688-11.804688c14.128907-15.105469 14.125-38.707031 0-53.8125l11.804688-11.804688c15.105469 14.128907 38.707031 14.128907 53.8125 0l11.804688 11.804688c-14.128907 15.105469-14.125 38.707031 0 53.8125zm0 0"/></symbol><symbol id="desk" viewBox="0 0 480 480"><title>desk</title><path d="m472 208h-9.441406l-14.71875-73.601562c-.761719-3.722657-4.039063-6.398438-7.839844-6.398438h-96c-.265625 0-.496094.144531-.761719.167969-.742187.058593-1.46875.222656-2.167969.488281-.324218.136719-.644531.289062-.949218.464844-.65625.378906-1.257813.851562-1.785156 1.398437-.152344.160157-.375.234375-.519532.410157-.144531.175781-.097656.230468-.167968.335937-.46875.652344-.835938 1.375-1.082032 2.140625-.125.261719-.238281.527344-.335937.800781-.027344.0625-.050781.128907-.070313.191407l-14.71875 73.601562h-113.441406v-8c0-13.253906-10.746094-24-24-24v-16h64c13.253906 0 24-10.746094 24-24v-112c0-13.253906-10.746094-24-24-24h-192c-13.253906 0-24 10.746094-24 24v112c0 13.253906 10.746094 24 24 24h64v16c-13.253906 0-24 10.746094-24 24v8h-88c-4.417969 0-8 3.582031-8 8v256c0 4.417969 3.582031 8 8 8h32c4.417969 0 8-3.582031 8-8v-56h384v56c0 4.417969 3.582031 8 8 8h32c4.417969 0 8-3.582031 8-8v-256c0-4.417969-3.582031-8-8-8zm-38.558594-64 12.796875 64h-79.679687l-12.796875-64zm-90.351562 37.34375 6.664062 26.65625h-12zm-295.089844-157.34375c0-4.417969 3.582031-8 8-8h192c4.417969 0 8 3.582031 8 8v88h-208zm0 112v-8h208v8c0 4.417969-3.582031 8-8 8h-192c-4.417969 0-8-3.582031-8-8zm88 24h32v16h-32zm-24 40c0-4.417969 3.582031-8 8-8h64c4.417969 0 8 3.582031 8 8v8h-80zm-64 200v-144h384v144zm416 64h-16v-216c0-4.417969-3.582031-8-8-8h-400c-4.417969 0-8 3.582031-8 8v216h-16v-240h448zm0 0"/></symbol><symbol id="star" viewBox="0 0 510 510"><title>star</title><polygon points="255,402.212 412.59,497.25 370.897,318.011 510,197.472 326.63,181.738 255,12.75 183.371,181.738 0,197.472 139.103,318.011 97.41,497.25 "/></symbol></svg>